ply
format ascii 1.0
comment Created by Blender 2.80 (sub 75) - www.blender.org, source file: ''
element vertex 16
property float x
property float y
property float z
property float nx
property float ny
property float nz
property float s
property float t
property uchar red
property uchar green
property uchar blue
property uchar alpha
element face 8
property list uchar uint vertex_indices
end_header
0.154248 -1.233988 -0.154248 0.707107 0.000000 0.707107 0.625000 1.000000 255 0 18 255
0.154248 1.233988 -0.154248 0.707107 0.000000 0.707107 0.625000 0.750000 255 0 18 255
-0.154248 1.233988 0.154248 0.707107 0.000000 0.707107 0.625000 0.000000 255 0 18 255
-0.154248 -1.233988 0.154248 0.707107 -0.000000 0.707107 0.625000 0.250000 255 0 18 255
0.154248 -1.233988 0.154248 -0.707107 0.000000 0.707107 0.375000 0.250000 255 0 18 255
0.154248 1.233988 0.154248 -0.707107 0.000000 0.707107 0.375000 0.000000 255 0 18 255
-0.154248 1.233988 -0.154248 -0.707107 0.000000 0.707107 0.375000 0.750000 255 0 18 255
-0.154248 -1.233988 -0.154248 -0.707107 0.000000 0.707107 0.375000 0.500000 255 0 18 255
-0.154248 -1.233988 -0.154249 0.707107 0.000000 -0.707107 0.375000 0.250000 255 0 18 255
-0.154248 1.233988 -0.154248 0.707107 0.000000 -0.707107 0.375000 0.000000 255 0 18 255
0.154248 1.233988 0.154249 0.707107 0.000000 -0.707107 0.375000 0.750000 255 0 18 255
0.154248 -1.233988 0.154248 0.707107 0.000000 -0.707107 0.375000 0.500000 255 0 18 255
-0.154248 -1.233988 0.154248 -0.707107 0.000000 -0.707107 0.625000 1.000000 255 0 18 255
-0.154248 1.233988 0.154249 -0.707107 0.000000 -0.707107 0.625000 0.750000 255 0 18 255
0.154248 1.233988 -0.154248 -0.707107 0.000000 -0.707107 0.625000 0.000000 255 0 18 255
0.154248 -1.233988 -0.154249 -0.707107 0.000000 -0.707107 0.625000 0.250000 255 0 18 255
3 0 1 2
3 0 2 3
3 4 5 6
3 4 6 7
3 8 9 10
3 8 10 11
3 12 13 14
3 12 14 15
