ply
format ascii 1.0
comment Created by Blender 2.80 (sub 75) - www.blender.org, source file: 'xwing_wing.blend'
element vertex 139
property float x
property float y
property float z
property float nx
property float ny
property float nz
property float s
property float t
property uchar red
property uchar green
property uchar blue
property uchar alpha
element face 61
property list uchar uint vertex_indices
end_header
3.000012 -0.147482 0.261971 0.000000 -0.000000 1.000000 0.375000 0.026299 255 255 255 255
3.000011 1.536926 0.261971 0.000000 -0.000000 1.000000 0.375000 0.250000 255 255 255 255
0.000012 1.536926 0.261972 0.000000 -0.000000 1.000000 0.625000 0.250000 255 255 255 255
0.000012 -0.147703 0.261972 0.000000 -0.000000 1.000000 0.625000 0.026281 255 255 255 255
8.000012 -0.063073 0.261971 -1.000000 0.000000 0.000000 0.000000 0.000000 87 87 87 255
8.000012 1.252757 0.261971 -1.000000 0.000000 0.000000 0.375000 0.039479 87 87 87 255
8.000012 -0.063073 -0.047887 -1.000000 0.000000 0.000000 0.375000 0.000000 87 87 87 255
3.000011 1.536926 0.261971 -0.079745 0.996815 0.000000 0.625000 0.500000 255 255 255 255
8.000012 1.936927 0.261971 -0.079745 0.996815 0.000000 0.625000 0.500000 255 255 255 255
8.000011 1.936927 -0.238029 -0.079745 0.996815 0.000000 0.375000 0.500000 255 255 255 255
3.000012 1.536926 -0.238029 -0.079745 0.996815 -0.000000 0.375000 0.500000 255 255 255 255
8.500011 -0.063073 0.261971 0.000000 -0.424212 0.905563 0.625000 0.750000 87 87 87 255
8.000012 -0.063073 0.261971 0.000000 -0.424212 0.905563 0.000000 0.000000 87 87 87 255
8.093682 -0.263032 0.168300 0.000000 -0.424212 0.905563 0.000000 0.000000 87 87 87 255
8.406321 -0.263073 0.168281 -0.000000 -0.424212 0.905563 0.625000 0.750000 87 87 87 255
0.000012 -1.463074 -0.238028 0.000000 -1.000000 0.000000 0.125000 0.500000 255 255 255 255
3.000012 -1.463074 -0.238029 0.000000 -1.000000 0.000000 0.125000 0.750000 255 255 255 255
3.000012 -1.463074 -0.047887 0.000000 -1.000000 0.000000 0.220071 0.750000 255 255 255 255
0.000012 -1.463074 -0.047886 0.000000 -1.000000 0.000000 0.220071 0.500000 255 255 255 255
0.000012 -1.463074 -0.238028 -0.000000 0.000000 -1.000000 0.375000 0.250000 255 255 255 255
0.000012 1.536926 -0.238028 -0.000000 0.000000 -1.000000 0.375000 0.500000 255 255 255 255
3.000012 1.536926 -0.238029 -0.000000 0.000000 -1.000000 0.625000 0.500000 255 255 255 255
3.000012 -1.463074 -0.238029 -0.000000 0.000000 -1.000000 0.625000 0.250000 255 255 255 255
3.000012 1.536926 -0.238029 -0.000000 1.000000 0.000000 0.375000 0.500000 255 255 255 255
0.000012 1.536926 -0.238028 -0.000000 1.000000 0.000000 0.375000 0.750000 255 255 255 255
0.000012 1.536926 0.261972 -0.000000 1.000000 0.000000 0.625000 0.750000 255 255 255 255
3.000011 1.536926 0.261971 -0.000000 1.000000 -0.000000 0.625000 0.500000 255 255 255 255
8.000011 1.936927 -0.238029 -0.000000 0.000000 -1.000000 0.625000 0.500000 255 255 255 255
8.000011 -0.063073 -0.238029 -0.000000 0.000000 -1.000000 0.625000 0.250000 255 255 255 255
0.000012 1.536926 0.261972 -1.000000 -0.000000 0.000000 0.875000 0.500000 255 255 255 255
0.000012 1.536926 -0.238028 -1.000000 -0.000000 0.000000 0.625000 0.500000 255 255 255 255
0.000012 -1.463074 -0.238028 -1.000000 -0.000000 0.000000 0.625000 0.750000 255 255 255 255
0.000012 -1.463074 -0.238028 -1.000000 -0.000000 0.000001 0.625000 0.750000 255 255 255 255
0.000012 -1.463074 -0.047886 -1.000000 -0.000000 0.000001 0.720071 0.750000 255 255 255 255
0.000012 -0.147703 0.261972 -1.000000 -0.000000 0.000001 0.875000 0.723719 255 255 255 255
0.000012 -0.147703 0.261972 -1.000000 -0.000000 0.000000 0.875000 0.723719 255 255 255 255
8.000012 -0.063073 0.261971 -0.905564 -0.424209 -0.000000 0.000000 0.000000 87 87 87 255
8.000012 -0.063073 -0.047887 -0.905564 -0.424209 -0.000000 0.220071 0.750000 87 87 87 255
8.093682 -0.263032 0.168300 -0.905564 -0.424209 -0.000000 0.000000 0.000000 87 87 87 255
8.500011 -0.063073 -0.238029 1.000000 0.000000 0.000000 0.375000 0.750000 87 87 87 255
8.500011 1.936927 -0.238029 1.000000 0.000000 0.000000 0.375000 1.000000 87 87 87 255
8.500011 1.936927 0.261971 1.000000 0.000000 0.000000 0.625000 1.000000 87 87 87 255
8.500011 -0.063073 0.261971 1.000000 -0.000000 0.000000 0.625000 0.750000 87 87 87 255
8.500011 -0.063073 -0.238029 0.000000 -0.424212 -0.905563 0.625000 0.250000 87 87 87 255
8.406322 -0.263073 -0.144338 0.000000 -0.424212 -0.905563 0.625000 0.250000 87 87 87 255
8.093701 -0.263073 -0.144338 0.000000 -0.424212 -0.905563 0.625000 0.250000 87 87 87 255
8.500011 -0.063073 -0.238029 0.000000 -0.424213 -0.905563 0.625000 0.250000 87 87 87 255
8.093701 -0.263073 -0.144338 0.000000 -0.424213 -0.905563 0.625000 0.250000 87 87 87 255
8.000011 -0.063073 -0.238029 0.000000 -0.424213 -0.905563 0.625000 0.250000 87 87 87 255
8.500011 1.936927 0.261971 0.000000 0.454624 0.890684 0.375000 0.250000 87 87 87 255
8.397928 2.136927 0.159887 0.000000 0.454624 0.890684 0.375000 0.250000 87 87 87 255
8.102096 2.136927 0.159887 0.000000 0.454624 0.890684 0.375000 0.250000 87 87 87 255
8.500011 1.936927 0.261971 -0.000000 0.454623 0.890684 0.375000 0.250000 87 87 87 255
8.102096 2.136927 0.159887 -0.000000 0.454623 0.890684 0.375000 0.250000 87 87 87 255
8.000012 1.936927 0.261971 -0.000000 0.454623 0.890684 0.375000 0.250000 87 87 87 255
8.000011 1.936927 -0.238029 0.000000 0.000000 -1.000000 0.625000 0.500000 87 87 87 255
8.500011 1.936927 -0.238029 0.000000 0.000000 -1.000000 0.625000 0.500000 87 87 87 255
8.500011 -0.063073 -0.238029 0.000000 0.000000 -1.000000 0.625000 0.250000 87 87 87 255
8.000011 -0.063073 -0.238029 0.000000 0.000000 -1.000000 0.625000 0.250000 87 87 87 255
8.397928 2.136927 0.159887 0.000000 0.000000 1.000000 0.375000 0.250000 87 87 87 255
8.397928 5.536927 0.159887 0.000000 0.000000 1.000000 0.375000 0.250000 87 87 87 255
8.102096 5.536927 0.159887 0.000000 0.000000 1.000000 0.375000 0.250000 87 87 87 255
8.102096 2.136927 0.159887 0.000000 -0.000000 1.000000 0.375000 0.250000 87 87 87 255
8.000011 1.936927 -0.238029 0.000000 0.454623 -0.890684 0.625000 0.500000 87 87 87 255
8.102095 2.136927 -0.135945 0.000000 0.454623 -0.890684 0.625000 0.500000 87 87 87 255
8.397927 2.136927 -0.135945 0.000000 0.454623 -0.890684 0.625000 0.500000 87 87 87 255
8.500011 1.936927 -0.238029 0.000000 0.454623 -0.890684 0.625000 0.500000 87 87 87 255
8.000012 1.936927 0.261971 -0.890685 0.454621 0.000003 0.625000 0.500000 87 87 87 255
8.102096 2.136927 0.159887 -0.890685 0.454621 0.000003 0.625000 0.500000 87 87 87 255
8.102095 2.136927 -0.135945 -0.890685 0.454621 0.000003 0.375000 0.500000 87 87 87 255
8.000012 1.936927 0.261971 -0.890686 0.454619 0.000002 0.625000 0.500000 87 87 87 255
8.102095 2.136927 -0.135945 -0.890686 0.454619 0.000002 0.375000 0.500000 87 87 87 255
8.000011 1.936927 -0.238029 -0.890686 0.454619 0.000002 0.375000 0.500000 87 87 87 255
8.500011 1.936927 -0.238029 0.890683 0.454625 -0.000003 0.375000 1.000000 87 87 87 255
8.397927 2.136927 -0.135945 0.890683 0.454625 -0.000003 0.375000 1.000000 87 87 87 255
8.397928 2.136927 0.159887 0.890683 0.454625 -0.000003 0.625000 1.000000 87 87 87 255
8.500011 1.936927 -0.238029 0.890685 0.454620 0.000000 0.375000 1.000000 87 87 87 255
8.397928 2.136927 0.159887 0.890685 0.454620 0.000000 0.625000 1.000000 87 87 87 255
8.500011 1.936927 0.261971 0.890685 0.454620 0.000000 0.625000 1.000000 87 87 87 255
8.102096 5.536927 0.159887 0.000000 1.000000 -0.000000 0.625000 0.500000 87 87 87 255
8.397928 5.536927 0.159887 0.000000 1.000000 -0.000000 0.625000 0.500000 87 87 87 255
8.397927 5.536927 -0.135945 0.000000 1.000000 -0.000000 0.375000 0.500000 87 87 87 255
8.102095 5.536927 -0.135945 0.000000 1.000000 -0.000000 0.375000 0.500000 87 87 87 255
8.102096 2.136927 0.159887 -1.000000 0.000000 0.000003 0.625000 0.500000 87 87 87 255
8.102096 5.536927 0.159887 -1.000000 0.000000 0.000003 0.625000 0.500000 87 87 87 255
8.102095 5.536927 -0.135945 -1.000000 0.000000 0.000003 0.375000 0.500000 87 87 87 255
8.102095 2.136927 -0.135945 -1.000000 0.000000 0.000003 0.375000 0.500000 87 87 87 255
8.102095 2.136927 -0.135945 -0.000000 -0.000000 -1.000000 0.625000 0.500000 87 87 87 255
8.102095 5.536927 -0.135945 -0.000000 -0.000000 -1.000000 0.625000 0.500000 87 87 87 255
8.397927 5.536927 -0.135945 -0.000000 -0.000000 -1.000000 0.625000 0.500000 87 87 87 255
8.397927 2.136927 -0.135945 -0.000000 0.000000 -1.000000 0.625000 0.500000 87 87 87 255
8.397927 2.136927 -0.135945 1.000000 0.000000 -0.000003 0.375000 1.000000 87 87 87 255
8.397927 5.536927 -0.135945 1.000000 0.000000 -0.000003 0.375000 1.000000 87 87 87 255
8.397928 5.536927 0.159887 1.000000 0.000000 -0.000003 0.625000 1.000000 87 87 87 255
8.397928 2.136927 0.159887 1.000000 0.000000 -0.000003 0.625000 1.000000 87 87 87 255
8.093701 -0.263073 -0.144338 -0.000000 -1.000000 -0.000000 0.125000 0.750000 87 87 87 255
8.406322 -0.263073 -0.144338 -0.000000 -1.000000 -0.000000 0.125000 0.750000 87 87 87 255
8.406321 -0.263073 0.168281 -0.000000 -1.000000 -0.000000 0.375000 0.750000 87 87 87 255
8.093701 -0.263073 0.168281 0.000000 -1.000000 -0.000000 0.375000 0.750000 87 87 87 255
8.000012 1.252757 0.261971 0.000000 0.000000 1.000000 0.375000 0.039479 255 255 255 255
8.000012 1.936927 0.261971 0.000000 0.000000 1.000000 0.375000 0.250000 255 255 255 255
8.500011 -0.063073 0.261971 0.905561 -0.424215 0.000003 0.625000 0.750000 87 87 87 255
8.406321 -0.263073 0.168281 0.905561 -0.424215 0.000003 0.625000 0.750000 87 87 87 255
8.406322 -0.263073 -0.144338 0.905561 -0.424215 0.000003 0.375000 0.750000 87 87 87 255
8.500011 -0.063073 0.261971 0.905564 -0.424211 0.000000 0.625000 0.750000 87 87 87 255
8.406322 -0.263073 -0.144338 0.905564 -0.424211 0.000000 0.375000 0.750000 87 87 87 255
8.500011 -0.063073 -0.238029 0.905564 -0.424211 0.000000 0.375000 0.750000 87 87 87 255
8.000012 -0.063073 -0.047887 -0.905564 -0.424209 0.000005 0.220071 0.750000 87 87 87 255
8.000011 -0.063073 -0.238029 -0.905564 -0.424209 0.000005 0.125000 0.750000 87 87 87 255
8.093701 -0.263073 -0.144338 -0.905564 -0.424209 0.000005 0.125000 0.750000 87 87 87 255
8.093701 -0.263073 -0.144338 -0.909024 -0.416744 -0.000000 0.125000 0.750000 87 87 87 255
8.093701 -0.263073 0.168281 -0.909024 -0.416744 -0.000000 0.375000 0.750000 87 87 87 255
8.093682 -0.263032 0.168300 -0.909024 -0.416744 -0.000000 0.375000 0.750000 87 87 87 255
8.093701 -0.263073 -0.144338 -0.905565 -0.424208 0.000001 0.125000 0.750000 87 87 87 255
8.093682 -0.263032 0.168300 -0.905565 -0.424208 0.000001 0.375000 0.750000 87 87 87 255
8.000012 -0.063073 -0.047887 -0.905565 -0.424208 0.000001 0.220071 0.750000 87 87 87 255
8.000012 1.252757 0.261971 -0.000000 0.000000 1.000000 0.375000 0.039479 87 87 87 255
8.000012 -0.063073 0.261971 -0.000000 0.000000 1.000000 0.000000 0.000000 87 87 87 255
8.500011 -0.063073 0.261971 -0.000000 0.000000 1.000000 0.625000 0.750000 87 87 87 255
8.500011 1.936927 0.261971 -0.000000 0.000000 1.000000 0.625000 1.000000 87 87 87 255
8.000012 1.936927 0.261971 -0.000000 0.000000 1.000000 0.375000 0.250000 87 87 87 255
3.000012 -0.147482 0.261971 0.064059 -0.228784 0.971367 0.375000 0.026299 255 255 255 255
3.000012 -1.463074 -0.047887 0.064059 -0.228784 0.971367 0.375000 0.000000 255 255 255 255
8.000012 -0.063073 -0.047887 0.064059 -0.228784 0.971367 0.375000 0.000000 255 255 255 255
3.000012 -0.147482 0.261971 0.064059 -0.228744 0.971377 0.375000 0.026299 255 255 255 255
8.000012 -0.063073 -0.047887 0.064059 -0.228744 0.971377 0.375000 0.000000 255 255 255 255
8.000012 1.252757 0.261971 0.064059 -0.228744 0.971377 0.375000 0.039479 255 255 255 255
0.000012 -0.147703 0.261972 0.000000 -0.229291 0.973358 0.625000 0.026281 255 255 255 255
0.000012 -1.463074 -0.047886 0.000000 -0.229291 0.973358 0.625000 0.000000 255 255 255 255
3.000012 -1.463074 -0.047887 0.000000 -0.229291 0.973358 0.375000 0.000000 255 255 255 255
0.000012 -0.147703 0.261972 0.000017 -0.229255 0.973366 0.625000 0.026281 255 255 255 255
3.000012 -1.463074 -0.047887 0.000017 -0.229255 0.973366 0.375000 0.000000 255 255 255 255
3.000012 -0.147482 0.261971 0.000017 -0.229255 0.973366 0.375000 0.026299 255 255 255 255
3.000012 -1.463074 -0.238029 0.269630 -0.962964 -0.000001 0.125000 0.750000 255 255 255 255
8.000011 -0.063073 -0.238029 0.269630 -0.962964 -0.000001 0.125000 0.750000 255 255 255 255
8.000012 -0.063073 -0.047887 0.269630 -0.962964 -0.000001 0.220071 0.750000 255 255 255 255
3.000012 -1.463074 -0.238029 0.269630 -0.962964 0.000000 0.125000 0.750000 255 255 255 255
8.000012 -0.063073 -0.047887 0.269630 -0.962964 0.000000 0.220071 0.750000 255 255 255 255
3.000012 -1.463074 -0.047887 0.269630 -0.962964 0.000000 0.220071 0.750000 255 255 255 255
3 0 1 2
3 0 2 3
3 4 5 6
3 7 8 9
3 7 9 10
3 11 12 13
3 11 13 14
3 15 16 17
3 15 17 18
3 19 20 21
3 19 21 22
3 23 24 25
3 23 25 26
3 21 27 28
3 21 28 22
3 29 30 31
3 32 33 34
3 31 35 29
3 36 37 38
3 39 40 41
3 39 41 42
3 43 44 45
3 46 47 48
3 49 50 51
3 52 53 54
3 55 56 57
3 55 57 58
3 59 60 61
3 59 61 62
3 63 64 65
3 63 65 66
3 67 68 69
3 70 71 72
3 73 74 75
3 76 77 78
3 79 80 81
3 79 81 82
3 83 84 85
3 83 85 86
3 87 88 89
3 87 89 90
3 91 92 93
3 91 93 94
3 95 96 97
3 95 97 98
3 0 99 100
3 0 100 1
3 101 102 103
3 104 105 106
3 107 108 109
3 110 111 112
3 113 114 115
3 116 117 118
3 118 119 120
3 118 120 116
3 121 122 123
3 124 125 126
3 127 128 129
3 130 131 132
3 133 134 135
3 136 137 138
